<svg width="1170" height="280" viewBox="0 0 1170 280" fill="none" xmlns="http://www.w3.org/2000/svg">
<g clip-path="url(#clip0_0_251)">
<rect width="1170" height="280" rx="20" fill="#7CCDE1"/>
<path d="M1022.39 -1.30639C1018.32 -8.35754 1012.9 -14.5378 1006.44 -19.4943C999.977 -24.4508 992.605 -28.0865 984.74 -30.1938C976.876 -32.3011 968.673 -32.8387 960.601 -31.776C952.529 -30.7132 944.745 -28.0709 937.694 -24C930.642 -19.929 924.462 -14.509 919.506 -8.0496C914.549 -1.59015 910.913 5.7823 908.806 13.6468C906.699 21.5114 906.161 29.7139 907.224 37.7862C908.287 45.8585 910.929 53.6425 915 60.6936L1022.39 -1.30639Z" fill="#4DB0C9"/>
<circle cx="661" cy="285" r="62" fill="#FAB33F"/>
<path d="M99.6936 -22.3064C99.6936 11.9353 71.9353 39.6936 37.6936 39.6936C3.45195 39.6936 -24.3064 11.9353 -24.3064 -22.3064C-24.3064 -56.548 3.45195 -84.3064 37.6936 -84.3064C71.9353 -84.3064 99.6936 -56.548 99.6936 -22.3064Z" fill="#9CEBFF"/>
</g>
<defs>
<clipPath id="clip0_0_251">
<rect width="1170" height="280" rx="20" fill="white"/>
</clipPath>
</defs>
</svg>
