<svg width="24" height="16" viewBox="0 0 24 16" fill="none" xmlns="http://www.w3.org/2000/svg">
<path d="M23.9998 7.59997C23.9998 7.41485 23.8878 7.16906 23.7742 7.04978L17.3744 0.249689C17.0756 -0.0592294 16.5915 -0.0950304 16.2432 0.218488C15.9317 0.498767 15.924 1.0454 16.212 1.34976L21.3493 6.79983H0.799996C0.358158 6.79983 0 7.15799 0 7.59982C0 8.04166 0.358158 8.39984 0.799996 8.39984H21.3493L16.212 13.8499C15.924 14.1542 15.9444 14.6874 16.2432 14.9811C16.5586 15.2912 17.0802 15.2636 17.3744 14.9499L23.7742 8.14989C23.9623 7.96546 23.9966 7.78781 23.9998 7.59997Z" fill="#F93801"/>
</svg>
