<svg width="30" height="60" viewBox="0 0 30 60" fill="none" xmlns="http://www.w3.org/2000/svg">
<path d="M30 -1.31134e-06C22.0435 -9.63552e-07 14.4129 3.1607 8.7868 8.7868C3.1607 14.4129 -1.05843e-06 22.0435 -1.31134e-06 30C-1.56425e-06 37.9565 3.1607 45.5871 8.78679 51.2132C14.4129 56.8393 22.0435 60 30 60L30 59.2934C22.2309 59.2934 14.78 56.2071 9.28646 50.7135C3.79289 45.22 0.706635 37.7691 0.706635 30C0.706635 22.2309 3.79289 14.78 9.28646 9.28646C14.78 3.79289 22.2309 0.706634 30 0.706633L30 -1.31134e-06Z" fill="#F93801"/>
</svg>
