<svg width="93" height="98" viewBox="0 0 93 98" fill="none" xmlns="http://www.w3.org/2000/svg">
<circle cx="42.5" cy="55.5" r="42.5" fill="#F8F8F8"/>
<path d="M42.5 13C50.9057 13 59.1226 15.4926 66.1117 20.1625C73.1008 24.8325 78.5482 31.4701 81.7649 39.236C84.9816 47.0018 85.8232 55.5471 84.1834 63.7913C82.5435 72.0355 78.4958 79.6083 72.552 85.552C66.6083 91.4958 59.0355 95.5435 50.7913 97.1834C42.5471 98.8232 34.0018 97.9816 26.236 94.7649C18.4701 91.5482 11.8325 86.1008 7.16254 79.1117C2.49258 72.1226 -2.00474e-07 63.9057 0 55.5H42.5V13Z" fill="#AC1C2E"/>
<circle cx="85" cy="8" r="8" fill="#FEB800"/>
</svg>
